<?xml version="1.0" encoding="UTF-8"?>
<svg width="512px" height="512px" viewBox="0 0 512 512" version="1.1" xmlns="http://www.w3.org/2000/svg" xmlns:xlink="http://www.w3.org/1999/xlink">
    <!-- Generator: Sketch 53 (72520) - https://sketchapp.com -->
    <title>icon</title>
    <desc>Created with Sketch.</desc>
    <defs>
        <circle id="path-1" cx="256" cy="256" r="245"></circle>
        <filter x="-2.3%" y="-1.9%" width="104.7%" height="104.7%" filterUnits="objectBoundingBox" id="filter-2">
            <feMorphology radius="1" operator="dilate" in="SourceAlpha" result="shadowSpreadOuter1"></feMorphology>
            <feOffset dx="0" dy="2" in="shadowSpreadOuter1" result="shadowOffsetOuter1"></feOffset>
            <feGaussianBlur stdDeviation="2.5" in="shadowOffsetOuter1" result="shadowBlurOuter1"></feGaussianBlur>
            <feColorMatrix values="0 0 0 0 0   0 0 0 0 0   0 0 0 0 0  0 0 0 0.633576766 0" type="matrix" in="shadowBlurOuter1"></feColorMatrix>
        </filter>
        <linearGradient x1="50%" y1="0%" x2="50%" y2="99.7360642%" id="linearGradient-3">
            <stop stop-color="#FFFFFF" stop-opacity="0.302884615" offset="0%"></stop>
            <stop stop-color="#A6A6A6" stop-opacity="0.203446258" offset="14.5534206%"></stop>
            <stop stop-color="#000000" stop-opacity="0.203179633" offset="100%"></stop>
        </linearGradient>
        <path d="M292.477829,396.959459 C285.095526,409.405098 274.306006,416.790422 259.5414,417.884544 C243.073186,418.978666 230.012188,412.277168 221.636114,398.600643 C196.365923,356.887238 171.379666,314.900304 146.39341,273.050134 C131.202902,247.611796 115.870426,222.173458 100.679918,196.598354 C85.3474425,170.886485 102.667461,139.567241 133.332412,138.062823 C149.516692,137.242232 162.00982,144.49079 170.243927,158.030551 C181.459349,176.493861 192.532804,195.230702 203.748226,213.830777 C211.840365,227.233772 219.648571,240.773533 227.882678,253.902998 C239.807937,273.1869 257.41189,283.991355 280.836505,285.359008 C313.914902,287.273721 344.72182,264.160392 348.696906,230.379373 C348.980841,227.917599 349.122808,225.319059 349.264776,224.088171 C349.122808,213.146951 346.993298,203.846913 342.450342,195.230702 C330.099181,171.433547 343.302146,144.764321 370.133978,139.02018 C391.996953,134.370161 414.711731,149.824636 417.551079,171.160016 C418.970752,180.323288 416.983209,188.9395 412.156319,197.00865 C372.263489,263.613331 332.370659,330.218013 292.477829,396.959459 Z" id="path-4"></path>
        <filter x="-1.7%" y="-2.0%" width="103.4%" height="103.9%" filterUnits="objectBoundingBox" id="filter-5">
            <feMorphology radius="1" operator="erode" in="SourceAlpha" result="shadowSpreadInner1"></feMorphology>
            <feGaussianBlur stdDeviation="2.5" in="shadowSpreadInner1" result="shadowBlurInner1"></feGaussianBlur>
            <feOffset dx="5" dy="3" in="shadowBlurInner1" result="shadowOffsetInner1"></feOffset>
            <feComposite in="shadowOffsetInner1" in2="SourceAlpha" operator="arithmetic" k2="-1" k3="1" result="shadowInnerInner1"></feComposite>
            <feColorMatrix values="0 0 0 0 0   0 0 0 0 0   0 0 0 0 0  0 0 0 1 0" type="matrix" in="shadowInnerInner1"></feColorMatrix>
        </filter>
    </defs>
    <g id="icon" stroke="none" stroke-width="1" fill="none" fill-rule="evenodd">
        <g id="circle">
            <use fill="black" fill-opacity="1" filter="url(#filter-2)" xlink:href="#path-1"></use>
            <use fill="#EF3A39" fill-rule="evenodd" xlink:href="#path-1"></use>
        </g>
        <circle id="gradient" fill="url(#linearGradient-3)" cx="256" cy="256" r="245"></circle>
        <g id="V" fill-rule="nonzero">
            <use fill="#FFFFFF" xlink:href="#path-4"></use>
            <use fill="black" fill-opacity="1" filter="url(#filter-5)" xlink:href="#path-4"></use>
        </g>
    </g>
</svg>